<svg width="14" height="14" viewBox="0 0 14 14" fill="none" xmlns="http://www.w3.org/2000/svg">
<path fill-rule="evenodd" clip-rule="evenodd" d="M10.5 0H3.5C1.57518 0 0 1.57448 0 3.5V10.5C0 12.4248 1.57518 14 3.5 14H10.5C12.4248 14 14 12.4248 14 10.5V3.5C14 1.57448 12.4248 0 10.5 0ZM6.99973 9.91677C5.38868 9.91677 4.08301 8.61057 4.08301 7.00022C4.08301 5.38917 5.38868 4.0835 6.99973 4.0835C8.61008 4.0835 9.91646 5.38917 9.91646 7.00022C9.91646 8.61057 8.61008 9.91677 6.99973 9.91677ZM9.91699 3.2085C9.91699 3.69167 10.3083 4.0835 10.792 4.0835C11.2757 4.0835 11.667 3.69167 11.667 3.2085C11.667 2.72532 11.2757 2.3335 10.792 2.3335C10.3083 2.3335 9.91699 2.72532 9.91699 3.2085Z" fill="black"/>
</svg>
