<svg width="32" height="24" viewBox="0 0 32 24" fill="none" xmlns="http://www.w3.org/2000/svg">
<path fill-rule="evenodd" clip-rule="evenodd" d="M15.5222 0C13.0728 0 11.0873 1.98559 11.0873 4.4349C11.0873 6.88424 13.0728 8.86981 15.5222 8.86981C17.9716 8.86981 19.9571 6.88424 19.9571 4.4349C19.9571 1.98559 17.9716 0 15.5222 0ZM6.85093 8.62783C11.4674 8.62783 15.2098 12.3702 15.2098 16.9866V23.8377H11.0521V16.9866C11.0521 16.4949 10.9677 16.0232 10.8125 15.5847L4.70535 21.6918L1.7654 18.7517L7.65486 12.8624C7.39465 12.812 7.12586 12.7855 6.85093 12.7855H0V8.62783H6.85093ZM24.2969 8.62783C19.6804 8.62783 15.9379 12.3702 15.9379 16.9866V23.8377H20.0957V16.9866C20.0957 16.6016 20.1475 16.2286 20.2445 15.8743L26.633 22.2628L29.573 19.3227L23.1846 12.9344C23.5388 12.8374 23.9119 12.7855 24.2969 12.7855H31.1477V8.62783H24.2969Z" fill="white"/>
</svg>
