<svg width="154" height="26" viewBox="0 0 154 26" fill="none" xmlns="http://www.w3.org/2000/svg">
<path fill-rule="evenodd" clip-rule="evenodd" d="M16.2062 0.623047C13.7569 0.623047 11.7713 2.60864 11.7713 5.05795C11.7713 7.50729 13.7569 9.49285 16.2062 9.49285C18.6557 9.49285 20.6411 7.50729 20.6411 5.05795C20.6411 2.60864 18.6557 0.623047 16.2062 0.623047ZM7.53501 9.25087C12.1515 9.25087 15.8939 12.9933 15.8939 17.6097V24.4608H11.7362V17.6097C11.7362 17.118 11.6517 16.6462 11.4965 16.2077L5.38943 22.3149L2.44948 19.3748L8.33895 13.4854C8.07873 13.435 7.80995 13.4086 7.53501 13.4086H0.684082V9.25087H7.53501ZM24.981 9.25087C20.3645 9.25087 16.622 12.9933 16.622 17.6097V24.4608H20.7797V17.6097C20.7797 17.2247 20.8316 16.8516 20.9286 16.4974L27.3171 22.8858L30.2571 19.9458L23.8686 13.5574C24.2229 13.4604 24.596 13.4086 24.981 13.4086H31.8318V9.25087H24.981Z" fill="white"/>
<path d="M38.4842 24.7008V0.802734H45.2524L52.509 21.2818H53.0323V0.802734H56.9048V24.7008H50.2763L42.8451 4.18684H42.3567V24.7008H38.4842Z" fill="white"/>
<path d="M72.4191 21.5605L73.3959 21.456L73.4657 24.2818C70.8142 24.8168 68.4651 25.0843 66.4184 25.0843C63.8367 25.0843 61.976 24.3747 60.8365 22.9561C59.72 21.5372 59.1617 19.2696 59.1617 16.1529C59.1617 9.96618 61.6852 6.8728 66.7324 6.8728C71.6166 6.8728 74.0589 9.53588 74.0589 14.8621L73.8147 17.5832H62.9993C63.0226 19.0254 63.3367 20.0837 63.9415 20.758C64.546 21.4327 65.6741 21.7698 67.3256 21.7698C68.9767 21.7698 70.6748 21.7002 72.4191 21.5605ZM70.3258 14.6528C70.3258 12.9316 70.0467 11.7338 69.4884 11.0593C68.9537 10.3616 68.0349 10.0127 66.7324 10.0127C65.4299 10.0127 64.4764 10.3732 63.8716 11.0942C63.2901 11.8152 62.9877 13.0014 62.9647 14.6528H70.3258Z" fill="white"/>
<path d="M85.3559 10.5013H80.5412V18.1765C80.5412 19.5954 80.646 20.5373 80.8553 21.0024C81.0646 21.4675 81.5995 21.7003 82.4602 21.7003L85.3209 21.5956L85.4953 24.6307C83.937 24.9331 82.7509 25.0845 81.9368 25.0845C79.96 25.0845 78.5993 24.6307 77.8551 23.7238C77.1338 22.8166 76.7735 21.1072 76.7735 18.5954V10.5013H74.5405V7.25673H76.7735V2.198H80.5412V7.25673H85.3559V10.5013Z" fill="white"/>
<path d="M85.3694 7.25659H89.1025L91.8585 21.456H92.5562L95.8707 7.60548H99.7781L103.092 21.456H103.79L106.511 7.25659H110.279L106.581 24.7004H100.546L97.8243 12.7339L95.1032 24.7004H89.0676L85.3694 7.25659Z" fill="white"/>
<path d="M112.707 9.14051C113.916 7.6287 115.916 6.8728 118.708 6.8728C121.498 6.8728 123.487 7.6287 124.673 9.14051C125.883 10.6523 126.487 12.92 126.487 15.9437C126.487 18.9672 125.906 21.2464 124.743 22.7815C123.58 24.3168 121.568 25.0843 118.708 25.0843C115.847 25.0843 113.835 24.3168 112.672 22.7815C111.509 21.2464 110.928 18.9672 110.928 15.9437C110.928 12.92 111.52 10.6523 112.707 9.14051ZM115.568 20.4789C116.103 21.4094 117.149 21.8745 118.708 21.8745C120.266 21.8745 121.312 21.4094 121.847 20.4789C122.382 19.5487 122.65 18.0253 122.65 15.9088C122.65 13.7922 122.359 12.292 121.778 11.4082C121.219 10.5244 120.196 10.0825 118.708 10.0825C117.219 10.0825 116.184 10.5244 115.603 11.4082C115.044 12.292 114.765 13.7922 114.765 15.9088C114.765 18.0253 115.033 19.5487 115.568 20.4789Z" fill="white"/>
<path d="M128.52 24.7004V7.25656H132.288V9.34984C134.265 8.07061 136.242 7.24492 138.219 6.8728V10.6756C136.219 11.0709 134.509 11.5826 133.091 12.2106L132.323 12.5246V24.7004H128.52Z" fill="white"/>
<path d="M143.185 24.7005H139.382V0H143.185V14.269L145.348 14.0598L149.465 7.25664H153.721L148.697 15.4204L154 24.7005H149.709L145.453 17.3391L143.185 17.5833V24.7005Z" fill="white"/>
</svg>
