<svg width="18" height="18" viewBox="0 0 18 18" fill="none" xmlns="http://www.w3.org/2000/svg">
<path d="M17.0234 12.4883C16.3945 12.4727 15.6016 12.4375 15.0977 12.3477C14.5586 12.2539 13.9063 12.0664 13.4453 11.9219C13.0859 11.8125 12.6953 11.9102 12.4258 12.1758L10.2109 14.3789C8.67969 13.5742 7.44922 12.6328 6.41016 11.5898C5.36719 10.5508 4.42578 9.32031 3.62109 7.78906L5.82422 5.57031C6.08984 5.30469 6.1875 4.91406 6.07812 4.55469C5.93359 4.09375 5.74609 3.44141 5.65234 2.90234C5.5625 2.39844 5.52734 1.60547 5.51172 0.976562C5.5 0.433594 5.05469 0 4.51172 0H1C0.5625 0 0 0.328125 0 1C0 5.53906 1.83984 9.875 4.96484 13.0352C8.125 16.1602 12.4609 18 17 18C17.6719 18 18 17.4375 18 17V13.4883C18 12.9453 17.5664 12.5 17.0234 12.4883Z" fill="black"/>
</svg>
