<svg width="104" height="37" viewBox="0 0 104 37" fill="none" xmlns="http://www.w3.org/2000/svg">
<path d="M5.16 30C4.68 29.8667 4.29333 29.7467 4 29.64C3.70667 29.56 3.56 29.52 3.56 29.52C3.61333 29.3867 3.58667 29.2667 3.48 29.16C3.4 29.0533 3.21333 28.9867 2.92 28.96C2.52 28.72 2.14667 28.4133 1.8 28.04C1.48 27.6933 1.21333 27.3467 1 27C0.786667 26.6533 0.626667 26.36 0.52 26.12C0.333334 25.72 0.24 25.48 0.24 25.4C0.266667 25.2933 0.426667 25.1733 0.72 25.04C1.01333 24.8267 1.22667 24.76 1.36 24.84C1.52 24.92 1.70667 25.1867 1.92 25.64C2.26667 26.2533 2.85333 26.72 3.68 27.04C4.53333 27.36 5.48 27.5067 6.52 27.48C7.58667 27.4267 8.6 27.1867 9.56 26.76C10.5467 26.36 11.16 25.9467 11.4 25.52C11.6667 25.0667 11.5733 24.4933 11.12 23.8C11.04 23.5867 10.9467 23.4133 10.84 23.28C10.7333 23.1467 10.56 22.9733 10.32 22.76C10.1067 22.5467 9.74667 22.2 9.24 21.72C8.84 21.5333 8.46667 21.36 8.12 21.2C7.8 21.04 7.45333 20.8667 7.08 20.68C6.65333 20.4667 6.13333 20.16 5.52 19.76C4.93333 19.3333 4.37333 18.8667 3.84 18.36C3.30667 17.8533 2.92 17.3867 2.68 16.96C2.25333 16.56 1.93333 16.0133 1.72 15.32C1.50667 14.6 1.42667 13.84 1.48 13.04C1.53333 12.24 1.73333 11.52 2.08 10.88C2.24 10.5067 2.50667 10.0533 2.88 9.52C3.28 8.96 3.72 8.4 4.2 7.84C4.68 7.28 5.14667 6.77333 5.6 6.32C6.05333 5.86667 6.42667 5.54667 6.72 5.36C6.93333 5.14667 7.16 4.93333 7.4 4.72C7.64 4.48 7.76 4.36 7.76 4.36C7.78667 4.22667 7.82667 4.16 7.88 4.16C7.96 4.16 8 4.16 8 4.16C8.13333 4.08 8.42667 3.94667 8.88 3.76C9.33333 3.57333 9.82667 3.22667 10.36 2.72C12.1467 1.86667 13.6 1.24 14.72 0.839999C15.84 0.44 16.76 0.24 17.48 0.24C18.1467 0.266666 18.7467 0.426666 19.28 0.719998C19.84 0.986665 20.2933 1.34666 20.64 1.8C21.0133 2.25333 21.24 2.8 21.32 3.44C21.5067 4.08 21.4533 4.82667 21.16 5.68C20.8667 6.50667 20.4267 7.29333 19.84 8.04C19.28 8.76 18.6667 9.30667 18 9.68C17.2533 10 16.7467 10.1467 16.48 10.12C16.24 10.0667 16.1333 9.78667 16.16 9.28C16.16 9.06667 16.2267 8.81333 16.36 8.52C16.52 8.22667 16.9333 7.70667 17.6 6.96C18.4533 5.70667 18.9733 4.70667 19.16 3.96C19.3467 3.21333 19.1733 2.8 18.64 2.72C18.48 2.66667 18.1867 2.66667 17.76 2.72C17.36 2.77333 16.9067 2.85333 16.4 2.96C15.92 3.04 15.5067 3.13333 15.16 3.24C14.8133 3.32 14.64 3.38666 14.64 3.44C14.64 3.44 14.64 3.48 14.64 3.56C14.64 3.64 14.5867 3.66667 14.48 3.64C14.4267 3.64 14.2 3.74667 13.8 3.96C13.4 4.17333 12.92 4.45333 12.36 4.8C11.8 5.14667 11.24 5.49333 10.68 5.84C10.12 6.18667 9.64 6.49333 9.24 6.76C8.86667 7 8.66667 7.14667 8.64 7.2C8.58667 7.49333 8.28 7.76 7.72 8C7.18667 8.32 6.69333 8.78667 6.24 9.4C5.81333 10.0133 5.33333 10.7733 4.8 11.68C4.34667 12.2933 4.02667 12.96 3.84 13.68C3.65333 14.3733 3.65333 14.9333 3.84 15.36C3.97333 15.7867 4.38667 16.3333 5.08 17C5.77333 17.6667 6.64 18.3067 7.68 18.92C8.58667 19.4267 9.4 19.9333 10.12 20.44C10.84 20.92 11.4267 21.3867 11.88 21.84C12.36 22.2933 12.68 22.6933 12.84 23.04C13.16 23.4933 13.3867 23.96 13.52 24.44C13.68 24.8933 13.76 25.3333 13.76 25.76C13.7867 26.1867 13.7467 26.5733 13.64 26.92C13.4533 27.3467 13.12 27.7867 12.64 28.24C12.1867 28.6933 11.8 28.9067 11.48 28.88C11.1867 28.96 10.96 29.0533 10.8 29.16C10.6667 29.2667 10.5067 29.36 10.32 29.44C10.1333 29.5467 9.73333 29.6533 9.12 29.76C8.53333 29.8667 7.88 29.9333 7.16 29.96C6.44 30.0133 5.77333 30.0267 5.16 30ZM16.4744 26.72C16.261 26.5067 16.101 26.24 15.9944 25.92C15.9144 25.6 15.8877 25.28 15.9144 24.96C15.941 24.64 16.0077 24.3733 16.1144 24.16C16.1144 23.9467 16.141 23.7867 16.1944 23.68C16.2744 23.5467 16.301 23.4267 16.2744 23.32C16.2477 23.2133 16.2744 23.0267 16.3544 22.76C16.4344 22.4933 16.5144 22.24 16.5944 22C16.781 21.5733 16.981 21.0667 17.1944 20.48C17.4077 19.8667 17.6077 19.2667 17.7944 18.68C17.981 18.0933 18.141 17.5867 18.2744 17.16C18.4077 16.7333 18.4877 16.4667 18.5144 16.36C18.5144 16.04 18.7277 15.8667 19.1544 15.84C19.4744 15.7333 19.7144 15.7333 19.8744 15.84C20.0344 15.92 20.2477 16.1733 20.5144 16.6C20.7277 16.8133 20.8077 17.1333 20.7544 17.56C20.701 17.9867 20.5277 18.52 20.2344 19.16C20.1277 19.3733 19.9944 19.68 19.8344 20.08C19.701 20.48 19.6077 20.84 19.5544 21.16C19.4477 21.3733 19.3144 21.68 19.1544 22.08C19.021 22.4533 18.901 22.8133 18.7944 23.16C18.741 23.2933 18.6877 23.4933 18.6344 23.76C18.581 24 18.5144 24.2667 18.4344 24.56C18.3544 24.8267 18.2477 25.0667 18.1144 25.28C17.8744 26.3733 17.6477 27.0133 17.4344 27.2C17.2477 27.3867 16.9277 27.2267 16.4744 26.72ZM20.3544 10.48C20.221 10.3467 20.101 10.16 19.9944 9.92C19.8877 9.65333 19.821 9.41333 19.7944 9.2C19.7677 8.96 19.7944 8.84 19.8744 8.84C20.0877 8.81333 20.341 8.58667 20.6344 8.16C20.9277 7.73333 21.0477 7.36 20.9944 7.04C20.9944 6.93333 21.0344 6.84 21.1144 6.76C21.1944 6.65333 21.2877 6.58667 21.3944 6.56C21.7144 6.34667 22.021 6.32 22.3144 6.48C22.6344 6.61333 22.9277 6.89333 23.1944 7.32C23.4344 7.82667 23.501 8.25333 23.3944 8.6C23.2877 8.92 22.9944 9.37333 22.5144 9.96C22.1144 10.4933 21.741 10.7867 21.3944 10.84C21.0744 10.8933 20.7277 10.7733 20.3544 10.48ZM24.4953 35.64C23.7486 35.9333 22.962 35.88 22.1353 35.48C21.3353 35.1067 20.642 34.5067 20.0553 33.68C19.9486 33.52 19.8153 33.2667 19.6553 32.92C19.522 32.6 19.3886 32.2667 19.2553 31.92C19.1486 31.5733 19.082 31.2667 19.0553 31C19.0286 30.7333 19.0553 30.5733 19.1353 30.52C19.2153 30.44 19.3486 30.4133 19.5353 30.44C19.722 30.4667 19.8953 30.5333 20.0553 30.64C20.242 30.7467 20.362 30.88 20.4153 31.04C20.4953 31.2267 20.6153 31.4667 20.7753 31.76C20.962 32.0533 21.162 32.32 21.3753 32.56C21.5886 32.8 21.7486 32.9333 21.8553 32.96C22.362 33.2 22.7353 33.3067 22.9753 33.28C23.2153 33.2533 23.4286 33.1733 23.6153 33.04C24.0686 32.6933 24.442 32.24 24.7353 31.68C25.0286 31.12 25.362 30.2533 25.7353 29.08C26.0286 28.0933 26.322 27.0533 26.6153 25.96C26.9353 24.84 27.2153 23.9733 27.4553 23.36C27.5353 23.04 27.6286 22.7733 27.7353 22.56C27.8686 22.32 27.9886 22.1467 28.0953 22.04H28.3353C27.7486 22.4133 27.2286 22.84 26.7753 23.32C26.322 23.8 25.7486 24.1867 25.0553 24.48C24.8953 24.6667 24.4953 24.7867 23.8553 24.84C23.242 24.8667 22.642 24.7867 22.0553 24.6C21.682 24.3867 21.402 24.2267 21.2153 24.12C21.0553 24.0133 20.922 23.8667 20.8153 23.68C20.7353 23.4933 20.6153 23.2 20.4553 22.8C20.2686 22.4 20.242 21.7467 20.3753 20.84C20.5086 19.9333 20.7486 19.0267 21.0953 18.12C21.4153 17.4533 21.882 16.7333 22.4953 15.96C23.1086 15.1867 23.762 14.4933 24.4553 13.88C25.1486 13.24 25.7753 12.84 26.3353 12.68C26.5486 12.5733 26.7753 12.5067 27.0153 12.48C27.282 12.4267 27.6553 12.4667 28.1353 12.6C28.5886 12.6533 28.9353 12.76 29.1753 12.92C29.4153 13.0533 29.802 13.3467 30.3353 13.8C30.682 14.1467 30.962 14.4933 31.1753 14.84C31.4153 15.1867 31.602 15.5467 31.7353 15.92C31.922 16.32 31.9886 16.6933 31.9353 17.04C31.9086 17.36 31.762 17.6933 31.4953 18.04C31.2553 18.3867 31.002 18.7333 30.7353 19.08C30.4686 19.4267 30.2686 19.9067 30.1353 20.52C30.002 21.32 29.7886 22.2267 29.4953 23.24C29.202 24.2267 28.9486 25.1467 28.7353 26L28.0953 28.48C27.4286 30.7467 26.7886 32.4267 26.1753 33.52C25.5886 34.64 25.0286 35.3467 24.4953 35.64ZM23.0553 22.84C23.5886 22.8133 24.0953 22.7067 24.5753 22.52C25.0553 22.3333 25.522 22.0267 25.9753 21.6C26.4286 21.1467 26.882 20.5733 27.3353 19.88C27.7886 19.24 28.1086 18.5733 28.2953 17.88C28.482 17.16 28.5486 16.4667 28.4953 15.8C28.4686 15.3733 28.402 15.0933 28.2953 14.96C28.1886 14.8267 27.962 14.7867 27.6153 14.84C27.1086 14.92 26.5486 15.2 25.9353 15.68C25.322 16.1333 24.7486 16.7067 24.2153 17.4C23.8153 17.9333 23.482 18.5733 23.2153 19.32C22.9486 20.12 22.7886 20.88 22.7353 21.6C22.682 22.32 22.7886 22.7333 23.0553 22.84ZM43.7141 27.52C43.4474 27.52 43.1674 27.3733 42.8741 27.08C42.6074 26.7867 42.3674 26.4267 42.1541 26C41.9674 25.5467 41.8741 25.12 41.8741 24.72C41.8741 24.32 41.9674 23.5733 42.1541 22.48C42.3674 21.3867 42.6207 20.28 42.9141 19.16C43.1274 18.4667 43.1941 18.0667 43.1141 17.96C43.0341 17.8533 42.6741 18 42.0341 18.4C41.6607 18.5867 41.3274 18.7867 41.0341 19C40.7407 19.1867 40.4874 19.4 40.2741 19.64C40.1407 19.7467 39.9407 19.92 39.6741 20.16C39.4074 20.4 39.1274 20.6267 38.8341 20.84C38.4874 21.1067 38.0474 21.48 37.5141 21.96C36.9807 22.44 36.4474 22.92 35.9141 23.4C35.4074 23.88 35.0207 24.2533 34.7541 24.52C34.7007 24.6267 34.6207 24.72 34.5141 24.8C34.4074 24.88 34.2874 24.9333 34.1541 24.96C34.0207 24.96 33.8741 24.9333 33.7141 24.88C33.4207 24.8 33.1407 24.6267 32.8741 24.36C32.6341 24.0933 32.5141 23.7867 32.5141 23.44C32.5141 23.1733 32.6207 22.72 32.8341 22.08C33.0474 21.4133 33.3274 20.6133 33.6741 19.68C34.0474 18.7467 34.4741 17.76 34.9541 16.72C35.0341 16.5867 35.1007 16.4267 35.1541 16.24C35.2074 16.0267 35.2474 15.8 35.2741 15.56C35.3274 15.32 35.3541 15.0933 35.3541 14.88C35.3541 14.7467 35.3674 14.6133 35.3941 14.48C35.4474 14.32 35.5007 14.1733 35.5541 14.04C35.6341 13.88 35.7007 13.7733 35.7541 13.72C35.8607 13.5067 36.0474 13.4533 36.3141 13.56C36.5807 13.64 36.8074 13.8267 36.9941 14.12C37.3941 14.4933 37.5941 14.96 37.5941 15.52C37.6207 16.08 37.4874 16.7733 37.1941 17.6C37.0874 17.7867 36.9941 17.9733 36.9141 18.16C36.8607 18.32 36.8074 18.4667 36.7541 18.6C36.7007 18.7067 36.6607 18.8 36.6341 18.88C36.6074 18.9333 36.5941 18.96 36.5941 18.96C36.7007 18.96 36.9407 18.84 37.3141 18.6C37.6874 18.36 38.1274 18.0933 38.6341 17.8C39.0341 17.5067 39.3807 17.24 39.6741 17C39.9941 16.7333 40.2607 16.5333 40.4741 16.4C40.6874 16.24 40.8207 16.16 40.8741 16.16C40.9807 16.16 41.1141 16.12 41.2741 16.04C41.4341 15.96 41.5674 15.8667 41.6741 15.76C41.7807 15.6533 41.8607 15.6 41.9141 15.6C41.9941 15.5733 42.0341 15.56 42.0341 15.56C42.0341 15.56 42.0874 15.56 42.1941 15.56C42.3007 15.5333 42.4074 15.4667 42.5141 15.36C42.7274 15.2 43.0074 15.16 43.3541 15.24C43.7007 15.2933 44.0207 15.4267 44.3141 15.64C44.6074 15.8533 44.7541 16.0933 44.7541 16.36C44.7541 16.4667 44.7807 16.56 44.8341 16.64C44.9141 16.6933 44.9541 16.72 44.9541 16.72C45.1674 16.72 45.3007 17.0533 45.3541 17.72C45.4341 18.3867 45.3674 19.0267 45.1541 19.64C45.1541 20.04 45.0741 20.52 44.9141 21.08C44.7807 21.64 44.6607 22.1733 44.5541 22.68C44.3407 23.3467 44.1941 23.9333 44.1141 24.44C44.0341 24.9467 44.0207 25.3733 44.0741 25.72C44.1274 26.0667 44.2207 26.3467 44.3541 26.56C44.4607 26.7467 44.4607 26.96 44.3541 27.2C44.2474 27.4133 44.0341 27.52 43.7141 27.52ZM49.5219 26.84C49.3085 26.8933 49.0285 26.92 48.6819 26.92C48.3352 26.8933 48.0285 26.8533 47.7619 26.8C47.5219 26.72 47.4019 26.64 47.4019 26.56C47.4019 26.4267 47.3352 26.36 47.2019 26.36C47.2019 26.36 47.1352 26.3067 47.0019 26.2C46.8952 26.0933 46.7219 25.9867 46.4819 25.88C46.2419 25.5067 46.1219 25.1067 46.1219 24.68C46.1219 24.2267 46.2419 23.52 46.4819 22.56C46.5619 21.8933 46.8152 21.12 47.2419 20.24C47.6952 19.3333 48.2419 18.4133 48.8819 17.48C49.5219 16.5467 50.1885 15.7067 50.8819 14.96C51.6019 14.2133 52.2552 13.6667 52.8419 13.32C53.2152 12.9467 53.6685 12.7467 54.2019 12.72C54.7352 12.6933 55.2419 12.8133 55.7219 13.08C55.9885 13.2133 56.2552 13.4267 56.5219 13.72C56.7885 14.0133 57.0419 14.3333 57.2819 14.68C57.5219 15.0267 57.7219 15.3733 57.8819 15.72C57.9619 16.0133 58.0019 16.28 58.0019 16.52C58.0285 16.7333 58.0285 17 58.0019 17.32C58.0019 17.64 57.9619 18.12 57.8819 18.76C57.7485 19.24 57.6285 19.8267 57.5219 20.52C57.4419 21.2133 57.4019 21.8133 57.4019 22.32C57.3485 22.8267 57.4019 23.1867 57.5619 23.4C57.7485 23.6133 58.0152 23.6267 58.3619 23.44C58.6819 23.28 58.9885 23.2133 59.2819 23.24C59.5752 23.24 59.8019 23.32 59.9619 23.48C60.1485 23.64 60.2419 23.88 60.2419 24.2C60.2419 24.52 60.0819 24.8533 59.7619 25.2C59.4685 25.52 59.0952 25.8 58.6419 26.04C58.2152 26.2533 57.8019 26.36 57.4019 26.36C57.1085 26.36 56.8285 26.1867 56.5619 25.84C56.2952 25.4667 56.0552 25.0267 55.8419 24.52C55.6552 23.9867 55.4819 23.48 55.3219 23L55.0819 22.08L53.3619 23.72C53.0152 24.0933 52.6685 24.44 52.3219 24.76C52.0019 25.0533 51.8019 25.2667 51.7219 25.4C51.5885 25.64 51.3352 25.88 50.9619 26.12C50.6152 26.36 50.1352 26.6 49.5219 26.84ZM49.6419 24.48C50.0952 24.2133 50.6152 23.8267 51.2019 23.32C51.7885 22.7867 52.3619 22.2133 52.9219 21.6C53.4819 20.96 53.9485 20.3733 54.3219 19.84C54.7752 19.2267 55.1219 18.6533 55.3619 18.12C55.6019 17.5867 55.7752 17.08 55.8819 16.6C55.7752 16.3067 55.6019 16 55.3619 15.68C55.1219 15.3333 54.9085 15.1467 54.7219 15.12C54.1352 15.12 53.5085 15.4933 52.8419 16.24C52.2019 16.96 51.5752 17.7467 50.9619 18.6C50.8552 18.7333 50.7085 18.9467 50.5219 19.24C50.3352 19.5333 50.1485 19.8133 49.9619 20.08C49.8019 20.32 49.6952 20.48 49.6419 20.56C49.5619 20.6667 49.4019 20.9733 49.1619 21.48C48.9485 21.96 48.7352 22.4533 48.5219 22.96C48.3085 23.44 48.2019 23.76 48.2019 23.92C48.2019 24.08 48.2152 24.2533 48.2419 24.44C48.2952 24.6267 48.4285 24.7467 48.6419 24.8C48.8552 24.8533 49.1885 24.7467 49.6419 24.48ZM62.5766 30C61.6966 29.8667 61.0966 29.5333 60.7766 29C60.4832 28.4933 60.4166 27.7067 60.5766 26.64C60.7366 26.1333 60.8299 25.68 60.8566 25.28C60.9099 24.8533 61.0299 24.5867 61.2166 24.48C61.2166 24.48 61.2299 24.44 61.2566 24.36C61.3099 24.28 61.2966 24.2 61.2166 24.12C61.2166 23.7733 61.3366 23.2933 61.5766 22.68C61.6299 22.52 61.6966 22.3333 61.7766 22.12C61.8832 21.88 61.9366 21.76 61.9366 21.76C61.8032 21.5467 61.8032 21.3733 61.9366 21.24C62.0699 21.1067 62.2032 20.9867 62.3366 20.88C62.4966 20.7467 62.5099 20.6 62.3766 20.44C62.3232 20.3333 62.3899 20.0933 62.5766 19.72C62.7632 19.32 62.9766 18.9067 63.2166 18.48C63.4566 18.0533 63.6166 17.72 63.6966 17.48C63.6966 17.4267 63.7632 17.24 63.8966 16.92C64.0299 16.6 64.1899 16.2267 64.3766 15.8C64.5632 15.3733 64.7366 14.9867 64.8966 14.64C65.0832 14.2933 65.2032 14.0667 65.2566 13.96C65.5232 13.8267 65.4166 13.7333 64.9366 13.68C64.4566 13.6267 63.9499 13.6133 63.4166 13.64C62.5899 13.6133 61.9232 13.5733 61.4166 13.52C60.9366 13.4667 60.5366 13.3467 60.2166 13.16C59.8966 12.7867 59.7766 12.52 59.8566 12.36C59.9632 12.1733 60.2832 12.0667 60.8166 12.04C61.1632 12.0133 61.4299 12 61.6166 12C61.8299 12 62.0966 11.9867 62.4166 11.96C62.7632 11.9067 63.2966 11.84 64.0166 11.76L66.0566 11.6L66.1766 10.92C66.3899 10.5733 66.5632 10.2667 66.6966 10C66.8566 9.70667 66.9899 9.41333 67.0966 9.12C67.2032 8.82667 67.2832 8.52 67.3366 8.2C67.3366 8.2 67.4566 7.98667 67.6966 7.56C67.9366 7.10667 68.0832 6.64 68.1366 6.16C68.4566 5.62667 68.7366 5.14667 68.9766 4.72C69.2166 4.26667 69.3632 3.98667 69.4166 3.88C69.7099 3.64 69.9099 3.52 70.0166 3.52C70.1499 3.52 70.4166 3.65333 70.8166 3.92C71.0566 4.05333 71.2699 4.21333 71.4566 4.4C71.6432 4.58667 71.7632 4.78667 71.8166 5C71.8699 5.18667 71.7899 5.37333 71.5766 5.56C71.5232 5.66666 71.4432 5.86667 71.3366 6.16C71.2299 6.42667 71.1499 6.65333 71.0966 6.84C70.9366 7.02667 70.7366 7.33333 70.4966 7.76C70.2832 8.16 70.1366 8.57333 70.0566 9C69.8432 9.45333 69.6432 9.86667 69.4566 10.24C69.2699 10.5867 69.1232 10.76 69.0166 10.76C69.0699 11.0267 69.2299 11.16 69.4966 11.16C69.7632 11.1333 70.2032 11.1067 70.8166 11.08C71.3232 11.0267 71.6699 10.9733 71.8566 10.92C72.0699 10.84 72.3099 10.8667 72.5766 11C72.7099 11.1867 72.8166 11.4 72.8966 11.64C72.9766 11.88 72.9899 12.1067 72.9366 12.32C72.9099 12.5067 72.8032 12.64 72.6166 12.72C72.4832 12.72 72.2032 12.8 71.7766 12.96C71.3766 13.0933 70.8699 13.1733 70.2566 13.2L68.1366 13.4L67.4566 14.76C67.2699 15.1067 67.1099 15.4267 66.9766 15.72C66.8432 15.9867 66.7499 16.1467 66.6966 16.2C66.6966 16.36 66.6032 16.6 66.4166 16.92C66.2566 17.24 66.0832 17.5867 65.8966 17.96C65.7366 18.4133 65.5499 18.8267 65.3366 19.2C65.1499 19.5733 65.0566 19.76 65.0566 19.76C64.9499 19.76 64.8966 19.84 64.8966 20C65.0299 20.32 64.9899 20.56 64.7766 20.72C64.6432 20.8 64.5232 20.92 64.4166 21.08C64.3366 21.2133 64.2966 21.28 64.2966 21.28C64.4032 21.3867 64.4166 21.52 64.3366 21.68C64.2832 21.84 64.2032 22.0133 64.0966 22.2C64.0966 22.4133 64.0299 22.72 63.8966 23.12C63.7899 23.52 63.6699 23.8933 63.5366 24.24C63.5632 24.72 63.5899 25.0267 63.6166 25.16C63.6432 25.2933 63.7099 25.3467 63.8166 25.32C63.9499 25.3467 64.0699 25.3467 64.1766 25.32C64.2832 25.2933 64.3899 25.28 64.4966 25.28C64.8699 25.12 64.6699 26.0533 63.8966 28.08C63.4699 28.7467 63.1766 29.2267 63.0166 29.52C62.8566 29.84 62.7099 30 62.5766 30ZM71.8188 25.96C71.3121 25.5067 70.9254 25.04 70.6588 24.56C70.4188 24.08 70.2321 23.32 70.0988 22.28C70.0454 21.8 70.0988 21.1733 70.2588 20.4C70.4188 19.6 70.6454 18.76 70.9388 17.88C71.2321 17 71.5654 16.2 71.9388 15.48C72.3121 14.7333 72.6854 14.1733 73.0588 13.8C73.3788 13.4 73.6321 13.1867 73.8188 13.16C74.0321 13.1067 74.4054 13.2 74.9388 13.44C75.2321 13.7867 75.3788 14.16 75.3788 14.56C75.3788 14.96 75.2188 15.4133 74.8988 15.92C74.3654 16.64 73.8988 17.5467 73.4988 18.64C73.1254 19.7067 72.8721 20.6667 72.7388 21.52C72.4721 22.4267 72.3521 23.04 72.3788 23.36C72.4054 23.68 72.6454 23.8933 73.0988 24C73.6054 24.1067 74.2054 23.92 74.8988 23.44C75.5921 22.9333 76.2721 22.24 76.9388 21.36C77.6054 20.4533 78.1388 19.4667 78.5388 18.4C78.6988 18.0267 78.8188 17.5867 78.8988 17.08C79.0054 16.5733 79.1121 16.2 79.2188 15.96C79.3521 15.4267 79.5388 15.04 79.7788 14.8C80.0188 14.5333 80.2721 14.3867 80.5388 14.36C80.8054 14.3067 81.0321 14.36 81.2188 14.52C81.4588 14.6267 81.6054 14.76 81.6588 14.92C81.7121 15.0533 81.7121 15.4267 81.6588 16.04C81.6588 17.0267 81.4454 17.8667 81.0188 18.56C80.5921 19.2533 80.2321 19.9867 79.9388 20.76C79.6988 21.32 79.3388 21.9467 78.8588 22.64C78.4054 23.3333 77.8988 23.96 77.3388 24.52C76.8054 25.08 76.2854 25.4667 75.7788 25.68C75.0321 26.16 74.3654 26.4 73.7788 26.4C73.2188 26.3733 72.5654 26.2267 71.8188 25.96ZM81.3834 26.6C81.1434 26.4133 80.9701 26.2267 80.8634 26.04C80.7834 25.8533 80.7834 25.4933 80.8634 24.96C80.9434 24.2133 81.0501 23.56 81.1834 23C81.3168 22.4133 81.4768 21.7467 81.6634 21C81.7168 20.68 81.8634 20.1333 82.1034 19.36C82.3701 18.5867 82.6901 17.7467 83.0634 16.84C83.4368 15.9333 83.8101 15.08 84.1834 14.28C84.5568 13.4533 84.8768 12.84 85.1434 12.44C85.3568 12.28 85.6101 12.2133 85.9034 12.24C86.2234 12.2667 86.4901 12.3867 86.7034 12.6C86.9968 12.84 87.0368 13.2667 86.8234 13.88C86.6368 14.4667 86.2368 15.4 85.6234 16.68C85.3034 17.4 85.0634 17.9467 84.9034 18.32C84.7434 18.6667 84.6768 18.88 84.7034 18.96C84.7301 19.0133 84.8501 18.9733 85.0634 18.84C85.2234 18.5467 85.5168 18.2133 85.9434 17.84C86.3701 17.44 86.8234 17.0533 87.3034 16.68C87.7834 16.3067 88.2368 15.9733 88.6634 15.68C89.0901 15.3867 89.3834 15.2 89.5434 15.12C89.7568 14.9867 89.9968 14.88 90.2634 14.8C90.5568 14.6933 90.7568 14.6133 90.8634 14.56C91.4768 14.2667 92.1034 14.16 92.7434 14.24C93.3834 14.32 93.7834 14.56 93.9434 14.96C93.9701 15.1733 94.0501 15.3333 94.1834 15.44C94.3434 15.5467 94.4234 15.6 94.4234 15.6C94.5301 15.6 94.5834 15.64 94.5834 15.72C94.6101 15.8 94.6234 15.84 94.6234 15.84C94.6234 16.0267 94.4768 16.1467 94.1834 16.2C93.9168 16.2267 93.5701 16.2533 93.1434 16.28C92.7968 16.3067 92.4901 16.3733 92.2234 16.48C91.9568 16.5867 91.6368 16.72 91.2634 16.88C90.2501 17.4667 89.2768 18.04 88.3434 18.6C87.4368 19.16 86.5568 19.9067 85.7034 20.84C85.5168 21.0533 85.3301 21.3067 85.1434 21.6C84.9568 21.8933 84.7568 22.2133 84.5434 22.56C84.4101 22.6933 84.2768 22.9867 84.1434 23.44C84.0101 23.8933 83.8901 24.3333 83.7834 24.76C83.7034 25.16 83.6634 25.4 83.6634 25.48C83.6634 25.48 83.6234 25.6133 83.5434 25.88C83.4634 26.12 83.3301 26.36 83.1434 26.6C82.8234 27.0267 82.5568 27.24 82.3434 27.24C82.1301 27.24 81.8101 27.0267 81.3834 26.6ZM98.8775 26.6C98.3175 27.08 97.6642 27.36 96.9175 27.44C96.1975 27.52 95.4908 27.4133 94.7975 27.12C94.1042 26.8 93.5308 26.32 93.0775 25.68C92.6242 25.0933 92.3308 24.4267 92.1975 23.68C92.0642 22.9067 92.0508 21.9067 92.1575 20.68C92.2375 19.64 92.5708 18.6 93.1575 17.56C93.7442 16.4933 94.4508 15.5467 95.2775 14.72C96.1308 13.8933 96.9708 13.32 97.7975 13C98.1975 12.7333 98.5308 12.6133 98.7975 12.64C99.0908 12.64 99.5308 12.6667 100.118 12.72C100.731 12.8 101.184 12.92 101.478 13.08C101.798 13.24 102.051 13.4533 102.238 13.72C102.638 14.12 102.904 14.52 103.038 14.92C103.171 15.2933 103.238 15.6667 103.238 16.04C103.131 16.6267 102.731 17.3467 102.038 18.2C101.371 19.0267 100.491 19.7067 99.3975 20.24C98.8108 20.4267 98.1708 20.5067 97.4775 20.48C96.7842 20.4533 96.2108 20.28 95.7575 19.96C95.2508 19.7467 94.9175 19.7867 94.7575 20.08C94.5975 20.3467 94.4508 21.0133 94.3175 22.08C94.2108 23.0933 94.2908 23.84 94.5575 24.32C94.8242 24.7733 95.1842 25.04 95.6375 25.12C96.1708 25.2267 96.5842 25.3067 96.8775 25.36C97.1975 25.3867 97.5842 25.2667 98.0375 25C98.4642 24.7333 98.7308 24.5867 98.8375 24.56C98.9442 24.5067 99.0242 24.4533 99.0775 24.4C99.1575 24.32 99.3308 24.1467 99.5975 23.88C99.7842 23.6933 99.9308 23.56 100.038 23.48C100.144 23.3733 100.264 23.32 100.398 23.32C100.531 23.32 100.651 23.3867 100.758 23.52C100.864 23.6267 100.971 23.7067 101.078 23.76C101.344 23.76 101.398 23.92 101.238 24.24C101.104 24.56 100.824 24.9467 100.398 25.4C99.9708 25.8267 99.4642 26.2267 98.8775 26.6ZM98.8375 18.12C99.1308 17.9867 99.4375 17.8 99.7575 17.56C100.078 17.2933 100.344 17.0133 100.558 16.72C100.798 16.4 100.918 16.1333 100.918 15.92C100.918 15.5467 100.744 15.24 100.398 15C100.051 14.7333 99.5308 14.6933 98.8375 14.88C98.5442 14.96 98.2108 15.16 97.8375 15.48C97.4642 15.7733 97.1042 16.1067 96.7575 16.48C96.4375 16.8533 96.1708 17.1867 95.9575 17.48C95.7708 17.7733 95.7042 17.9467 95.7575 18C95.8375 18.1333 96.0642 18.24 96.4375 18.32C96.8108 18.3733 97.2242 18.3867 97.6775 18.36C98.1575 18.3333 98.5442 18.2533 98.8375 18.12Z" fill="white"/>
</svg>
