<svg width="171" height="36" viewBox="0 0 171 36" fill="none" xmlns="http://www.w3.org/2000/svg">
<path d="M0 24.0237L12.1728 18.606L19.1792 22.6693L20.5946 35.9999L11.9605 35.9284L13.2343 26.6612L11.7481 25.8058L4.4586 31.509L0 24.0237Z" fill="white" fill-opacity="0.3"/>
<path d="M19.9585 22.0981L30.716 30.0109L34.9622 22.3833L26.3277 18.8902V17.1794L34.9622 13.615L30.716 6.05859L19.9585 13.9715V22.0981Z" fill="white" fill-opacity="0.6"/>
<path d="M19.1792 13.3306L20.5946 0L11.9605 0.142532L13.2343 9.40986L11.7481 10.2653L4.38784 4.56232L0 11.9762L12.1728 17.394L19.1792 13.3306Z" fill="white"/>
<path d="M63.7668 16.4019V28.8907H68.4136V12.9749H61.6464V16.4019H63.7668Z" fill="white"/>
<path d="M63.6222 10.739C64.0482 11.1843 64.6968 11.4069 65.568 11.4069C66.4397 11.4069 67.0783 11.1843 67.4846 10.739C67.9111 10.2741 68.1236 9.69321 68.1236 8.99638C68.1236 8.27984 67.9111 7.69896 67.4846 7.25371C67.0783 6.78908 66.4397 6.55664 65.568 6.55664C64.6968 6.55664 64.0482 6.78908 63.6222 7.25371C63.2158 7.69896 63.0124 8.27984 63.0124 8.99638C63.0124 9.69321 63.2158 10.2741 63.6222 10.739Z" fill="white"/>
<path d="M47.59 28.5424C48.9064 29.1425 50.5231 29.4428 52.4397 29.4428C54.2407 29.4428 55.7893 29.1617 57.087 28.6004C58.3842 28.0391 59.3811 27.2547 60.0782 26.2477C60.7949 25.2216 61.1528 24.0308 61.1528 22.6754C61.1528 21.3588 60.8146 20.2454 60.1367 19.3353C59.478 18.406 58.5589 17.6799 57.3772 17.1573C56.1961 16.615 54.8312 16.2761 53.2821 16.1407L51.6558 15.9955C50.6877 15.9178 49.9906 15.6566 49.5646 15.2112C49.1386 14.7659 48.9256 14.243 48.9256 13.643C48.9256 13.1781 49.0422 12.7522 49.2739 12.365C49.5065 11.9583 49.8548 11.6389 50.3197 11.4064C50.8038 11.1742 51.3943 11.058 52.0914 11.058C52.8269 11.058 53.4371 11.1934 53.9212 11.4647C54.0277 11.5219 54.1289 11.5832 54.2239 11.6483L54.2469 11.6644C54.2824 11.6889 54.3174 11.7144 54.3515 11.7401C54.6456 11.9649 54.8797 12.2312 55.0538 12.5392C55.3052 12.9652 55.4319 13.4395 55.4319 13.9624H60.0782C60.0782 12.5682 59.7587 11.358 59.1202 10.3319C58.4811 9.28637 57.5615 8.48285 56.3611 7.92116C55.1795 7.34029 53.7566 7.0498 52.0914 7.0498C50.5035 7.0498 49.129 7.3211 47.967 7.86316C46.8056 8.38604 45.8955 9.14115 45.2373 10.1285C44.5978 11.116 44.2783 12.2876 44.2783 13.643C44.2783 15.521 44.9082 17.0312 46.1666 18.1738C47.4249 19.3161 49.1098 19.9744 51.2202 20.1486L52.8177 20.2938C54.1145 20.4101 55.0538 20.6715 55.6348 21.0779C56.2153 21.4652 56.506 21.9977 56.506 22.6754C56.506 22.9869 56.4552 23.2789 56.353 23.5518C56.2772 23.7543 56.1736 23.9463 56.0416 24.1278C55.7312 24.5341 55.2764 24.8536 54.6763 25.0863C54.0761 25.3185 53.3306 25.4346 52.4397 25.4346C51.4524 25.4346 50.6488 25.2993 50.0295 25.0278C49.4096 24.7375 48.9452 24.36 48.6348 23.8954C48.3446 23.4304 48.1997 22.9272 48.1997 22.3849H43.5817C43.5817 23.7597 43.9204 24.9793 44.5978 26.0443C45.2757 27.0902 46.2731 27.9225 47.59 28.5424Z" fill="white"/>
<path d="M78.7817 29.0944C77.1746 29.0944 75.8773 28.9005 74.89 28.5134C73.9022 28.1066 73.1764 27.4388 72.7115 26.5095C72.2663 25.5606 72.0437 24.283 72.0437 22.6757V16.3732H69.633V12.9751H72.0437V8.67676H76.371V12.9751H81.0183V16.3732H76.371V22.8501C76.371 23.6052 76.5648 24.1861 76.952 24.5924C77.3583 24.9796 77.9297 25.1734 78.6656 25.1734H81.0183V29.0944H78.7817Z" fill="white"/>
<path fill-rule="evenodd" clip-rule="evenodd" d="M86.613 28.7454C87.6584 29.2098 88.8592 29.4425 90.2144 29.4425C91.5501 29.4425 92.7317 29.2098 93.7578 28.7454C94.784 28.2805 95.636 27.6319 96.3134 26.7996C96.9913 25.9667 97.4466 25.0178 97.6783 23.953H93.4091C93.2157 24.4368 92.8478 24.8436 92.3056 25.1727C91.7635 25.5018 91.066 25.6664 90.2144 25.6664C89.6867 25.6664 89.2151 25.604 88.7997 25.4793C88.4835 25.3843 88.2 25.2533 87.9491 25.0859C87.3681 24.6983 86.9421 24.1562 86.671 23.4593C86.5957 23.2608 86.5314 23.0531 86.4772 22.8368C86.4221 22.6177 86.3774 22.3897 86.3439 22.1523H97.969V20.5839C97.969 19.1317 97.6591 17.7957 97.0398 16.576C96.4199 15.3366 95.5195 14.3394 94.3388 13.5844C93.1769 12.8099 91.7439 12.4226 90.0398 12.4226C88.7426 12.4226 87.5806 12.655 86.5545 13.1197C85.5484 13.5649 84.706 14.1748 84.0281 14.9493C83.3507 15.7238 82.8278 16.605 82.4594 17.5925C82.1111 18.5604 81.9369 19.5769 81.9369 20.6419V21.2228C81.9369 22.2491 82.1111 23.2559 82.4594 24.2435C82.8278 25.2116 83.3507 26.0924 84.0281 26.8864C84.7252 27.6607 85.5863 28.2805 86.613 28.7454ZM86.424 19.2804C86.4369 19.2189 86.4504 19.1584 86.4652 19.0987C86.5055 18.9346 86.5521 18.7772 86.6048 18.6268C86.6346 18.5412 86.6662 18.4578 86.7003 18.3766C86.9906 17.6601 87.4166 17.118 87.9779 16.7502C88.188 16.6127 88.4154 16.5009 88.6596 16.4149C89.0702 16.2705 89.5308 16.1983 90.0398 16.1983C90.8343 16.1983 91.492 16.3823 92.0149 16.7502C92.557 17.0986 92.9639 17.6117 93.2349 18.2894C93.257 18.3441 93.2776 18.3997 93.2978 18.4561C93.3299 18.5459 93.3596 18.638 93.3875 18.7325C93.4283 18.8731 93.4642 19.0185 93.4959 19.1689C93.5189 19.2797 93.5386 19.3932 93.5563 19.5094H86.3794C86.3928 19.4317 86.4077 19.3555 86.424 19.2804Z" fill="white"/>
<path d="M99.8873 28.8909V12.9751H103.576V16.9838C103.626 16.7455 103.683 16.5168 103.747 16.2974C103.802 16.1127 103.86 15.9345 103.924 15.7633C104.331 14.6789 104.941 13.8658 105.754 13.3235C106.567 12.7621 107.564 12.4814 108.746 12.4814H108.949C110.15 12.4814 111.146 12.7621 111.94 13.3235C112.754 13.8658 113.364 14.6789 113.77 15.7633L113.802 15.8451L113.83 15.92C113.848 15.8671 113.867 15.815 113.886 15.7633C114.312 14.6789 114.932 13.8658 115.745 13.3235C116.558 12.7621 117.556 12.4814 118.737 12.4814H118.94C120.14 12.4814 121.147 12.7621 121.96 13.3235C122.793 13.8658 123.423 14.6789 123.848 15.7633C124.274 16.8477 124.488 18.203 124.488 19.8295V28.8909H119.84V19.568C119.84 18.6967 119.608 17.99 119.143 17.448C118.698 16.9057 118.059 16.6346 117.227 16.6346C116.394 16.6346 115.736 16.9155 115.252 17.4769C114.768 18.019 114.525 18.7451 114.525 19.6553V28.8909H109.849V19.568C109.849 18.6967 109.617 17.99 109.152 17.448C108.707 16.9057 108.078 16.6346 107.265 16.6346C106.412 16.6346 105.745 16.9155 105.26 17.4769C104.776 18.019 104.534 18.7451 104.534 19.6553V28.8909H99.8873Z" fill="white"/>
<path fill-rule="evenodd" clip-rule="evenodd" d="M136.9 25.8251V28.8916H140.588V19.133C140.588 17.6614 140.298 16.4611 139.717 15.5315C139.136 14.5828 138.284 13.8761 137.161 13.4114C136.058 12.9468 134.693 12.7144 133.066 12.7144C132.714 12.7144 132.346 12.7181 131.962 12.7258C131.735 12.7305 131.503 12.7363 131.265 12.7433C130.626 12.7628 130.006 12.7917 129.407 12.8306L128.948 12.8614C128.713 12.8778 128.491 12.8939 128.283 12.9103C128.127 12.9225 127.979 12.9346 127.838 12.9468V16.8677C128.439 16.8289 129.106 16.7901 129.842 16.7515C130.048 16.7408 130.252 16.7307 130.455 16.7213C130.747 16.7078 131.036 16.6961 131.321 16.6858C131.546 16.6776 131.77 16.6704 131.992 16.6643C132.688 16.6449 133.25 16.6353 133.676 16.6353C134.528 16.6353 135.147 16.8385 135.535 17.2452C135.922 17.6518 136.116 18.2617 136.116 19.075V19.133H133.24C131.827 19.133 130.578 19.317 129.494 19.6849C128.409 20.0333 127.567 20.5852 126.967 21.3403C126.367 22.0762 126.067 23.025 126.067 24.1867C126.067 25.2518 126.309 26.1714 126.793 26.9457C127.277 27.7009 127.945 28.2818 128.797 28.6882C129.668 29.095 130.675 29.2984 131.817 29.2984C132.921 29.2984 133.85 29.095 134.606 28.6882C135.38 28.2818 135.98 27.7009 136.406 26.9457C136.481 26.8186 136.551 26.6867 136.616 26.5495C136.708 26.3557 136.791 26.1513 136.863 25.9378L136.9 25.8251ZM136.116 22.996V21.718H133.211C132.398 21.718 131.769 21.9212 131.324 22.3279C130.898 22.7151 130.684 23.2476 130.684 23.9253C130.684 24.2443 130.738 24.5341 130.844 24.7955C130.951 25.0575 131.11 25.2901 131.324 25.4936C131.769 25.8812 132.398 26.0745 133.211 26.0745C133.366 26.0745 133.516 26.0669 133.66 26.0515C133.778 26.0395 133.893 26.0218 134.004 25.9992C134.217 25.9556 134.418 25.8937 134.606 25.8131C135.032 25.6197 135.38 25.3002 135.651 24.8545C135.922 24.4093 136.077 23.7897 136.116 22.996Z" fill="white"/>
<path d="M143.37 28.8905V12.9747H147.058V18.2281C147.235 16.7285 147.681 15.5192 148.394 14.6011C149.363 13.3814 150.756 12.7715 152.577 12.7715H153.187V16.7794H152.025C150.747 16.7794 149.759 17.1279 149.062 17.825C148.365 18.5027 148.016 19.4902 148.016 20.7873V28.8905H143.37Z" fill="white"/>
<path d="M159.08 21.4564H160.619L165.643 28.8914H170.871L164.5 19.7603L169.739 12.9756H164.86L159.08 20.5435V7.6897H154.433V28.8914H159.08V21.4564Z" fill="white"/>
</svg>
