<svg width="16" height="13" viewBox="0 0 16 13" fill="none" xmlns="http://www.w3.org/2000/svg">
<path d="M15.2777 1.5552C15.1789 1.44951 15.0214 1.42327 14.8937 1.4912C14.7388 1.56212 14.5782 1.61993 14.4137 1.664C14.6577 1.35987 14.8423 1.01248 14.9577 0.640004C14.9892 0.510928 14.9377 0.375789 14.8283 0.300451C14.7188 0.225114 14.5742 0.225254 14.4649 0.300804C13.9549 0.582865 13.4107 0.797972 12.8457 0.940804C12.2388 0.336964 11.417 -0.00139233 10.5609 4.30653e-06C9.87783 0.0150235 9.21266 0.221225 8.64089 0.595204C7.42489 1.28 7.21369 2.8608 7.30329 3.84C5.04896 3.64989 2.96925 2.54995 1.54329 0.793604C1.48495 0.703875 1.38769 0.64694 1.28089 0.640004C1.17418 0.647206 1.07812 0.707241 1.02489 0.800004C0.365586 1.9417 0.420347 3.36052 1.16569 4.448C1.06969 4.384 0.967286 4.3072 0.864886 4.224C0.769418 4.12936 0.624974 4.10447 0.503337 4.16171C0.3817 4.21895 0.308808 4.34612 0.320886 4.48C0.340298 5.67097 0.936931 6.77832 1.92089 7.4496L1.67129 7.3792C1.5526 7.34227 1.42326 7.3774 1.33958 7.46932C1.25589 7.56123 1.23301 7.69329 1.28089 7.808C1.78318 8.94252 2.76706 9.79255 3.96249 10.1248C2.87269 10.7544 1.61016 11.019 0.359286 10.88C0.208066 10.8613 0.0646432 10.9518 0.0164595 11.0964C-0.0317242 11.2409 0.0286975 11.3994 0.160886 11.4752C1.66576 12.353 3.37875 12.8105 5.12089 12.8V12.8C7.58138 12.7799 9.91376 11.7 11.5209 9.8368C13.1219 8.12092 13.9639 5.83234 13.8569 3.488C14.4272 3.05222 14.9186 2.52187 15.3097 1.92C15.3765 1.80372 15.3638 1.65808 15.2777 1.5552Z" fill="black"/>
</svg>
