<svg width="146" height="30" viewBox="0 0 146 30" fill="none" xmlns="http://www.w3.org/2000/svg">
<path d="M118.86 1.37915V28.2757H122.797V1.37915H118.86Z" fill="white"/>
<path fill-rule="evenodd" clip-rule="evenodd" d="M83.2656 28.71C81.7121 28.71 80.4146 28.3483 79.3725 27.6245C79.2584 27.5455 79.1477 27.4631 79.0397 27.3776V28.2759H75.5663V1.81348H79.5318V13.1499C80.5046 12.5244 81.6815 12.2117 83.0628 12.2117C84.5583 12.2117 85.8608 12.5687 86.9704 13.2826C88.0801 13.9966 88.9387 14.9759 89.5463 16.2205C90.1639 17.4555 90.4725 18.869 90.4725 20.4607C90.4725 22.0238 90.1687 23.4276 89.5608 24.6724C88.9628 25.9169 88.1232 26.901 87.0428 27.6245C85.9621 28.3483 84.7032 28.71 83.2656 28.71ZM79.387 17.9717C79.1553 18.6855 79.0397 19.5152 79.0397 20.4607C79.0397 21.4062 79.1553 22.2362 79.387 22.95C79.6184 23.6641 79.9949 24.2186 80.5156 24.6145C81.0463 25.01 81.7508 25.2076 82.6287 25.2076C83.4777 25.2076 84.1725 24.9955 84.7128 24.571C85.2532 24.1465 85.6535 23.5772 85.9139 22.8631C86.1746 22.1396 86.3046 21.339 86.3046 20.4607C86.3046 19.5924 86.1697 18.8014 85.8994 18.0876C85.6294 17.3638 85.2097 16.7897 84.6404 16.3652C84.0808 15.9311 83.3618 15.714 82.4839 15.714C81.6639 15.714 80.998 15.9117 80.487 16.3073C79.9853 16.7029 79.6184 17.2576 79.387 17.9717Z" fill="white"/>
<path d="M69.343 19.0424V28.2758H73.2792V18.0006C73.2792 16.2928 72.8209 14.9131 71.9044 13.8615C70.9975 12.8002 69.6516 12.2695 67.8668 12.2695C66.8247 12.2695 65.8744 12.5011 65.0158 12.9642C64.2296 13.3841 63.5882 13.9611 63.0916 14.6954C62.7213 14.029 62.2096 13.4809 61.5568 13.051C60.7754 12.53 59.772 12.2695 58.5468 12.2695C57.4758 12.2695 56.5061 12.5059 55.6378 12.9787C54.9816 13.3399 54.4268 13.7998 53.9733 14.3583V12.6458H50.5002V28.2758H54.4654V18.811C54.4654 17.9137 54.7116 17.1853 55.2037 16.6257C55.7054 16.0564 56.3661 15.7718 57.1861 15.7718C58.0451 15.7718 58.7154 16.0613 59.1978 16.6402C59.6899 17.2094 59.9361 18.0103 59.9361 19.0424V28.2758H63.8723V18.811C63.8723 18.2127 63.9833 17.6868 64.2054 17.2335C64.4368 16.7704 64.7551 16.4134 65.1606 16.1626C65.5658 15.902 66.0434 15.7718 66.5934 15.7718C67.452 15.7718 68.1223 16.0613 68.6047 16.6402C69.0968 17.2094 69.343 18.0103 69.343 19.0424Z" fill="white"/>
<path d="M36.3971 28.1162C37.1689 28.531 38.1675 28.7386 39.393 28.7386C40.9268 28.7386 42.1958 28.4059 43.1992 27.74C43.6754 27.4272 44.0951 27.0683 44.4582 26.6638V28.2755H47.9316V12.6455H43.9661V20.5762C43.9661 21.541 43.8551 22.3224 43.6334 22.9207C43.4209 23.5093 43.1461 23.9579 42.8082 24.2665C42.4706 24.5659 42.1089 24.7683 41.723 24.8745C41.3371 24.9807 40.9751 25.0338 40.6375 25.0338C39.7982 25.0338 39.1468 24.8455 38.6837 24.4693C38.2303 24.0931 37.9023 23.6252 37.6996 23.0655C37.4971 22.5059 37.3765 21.951 37.3378 21.401C37.2992 20.8417 37.2799 20.3834 37.2799 20.0262V12.6455H33.2858V21.4155C33.2858 21.6762 33.3047 22.091 33.3434 22.6603C33.382 23.2296 33.493 23.8614 33.6765 24.5562C33.8596 25.241 34.1637 25.9021 34.5882 26.539C35.0223 27.1755 35.6254 27.7014 36.3971 28.1162Z" fill="white"/>
<path d="M92.2102 12.6459V28.2759H96.1754V20.2872C96.1754 19.689 96.2575 19.1534 96.4216 18.6807C96.5857 18.1983 96.8268 17.7834 97.145 17.4362C97.4637 17.0792 97.8543 16.7945 98.3174 16.5823C98.7805 16.3604 99.2968 16.2301 99.8661 16.1915C100.445 16.1433 100.951 16.1867 101.385 16.3218V12.6459C100.913 12.588 100.44 12.5783 99.9671 12.6169C99.4943 12.6459 99.0361 12.7279 98.5923 12.8629C98.1485 12.9884 97.7385 13.1669 97.3623 13.3984C96.8702 13.6879 96.4554 14.0545 96.1178 14.4983C95.9578 14.7084 95.813 14.9293 95.6833 15.161V12.6459H92.2102Z" fill="white"/>
<path fill-rule="evenodd" clip-rule="evenodd" d="M109.674 28.71C108.072 28.71 106.658 28.3676 105.433 27.6824C104.217 26.9879 103.262 26.0376 102.568 24.8314C101.883 23.6158 101.54 22.2265 101.54 20.6634C101.54 18.9558 101.878 17.47 102.553 16.206C103.228 14.9421 104.159 13.9628 105.346 13.2682C106.533 12.5638 107.898 12.2117 109.442 12.2117C111.082 12.2117 112.476 12.5976 113.624 13.3695C114.773 14.1413 115.622 15.2267 116.172 16.6257C116.722 18.0248 116.915 19.6696 116.751 21.5607H105.776C105.898 22.4989 106.19 23.261 106.649 23.8472C107.286 24.6386 108.217 25.0341 109.442 25.0341C110.214 25.0341 110.875 24.8652 111.425 24.5276C111.975 24.19 112.394 23.7027 112.684 23.0658L116.62 24.1948C116.032 25.6227 115.101 26.732 113.827 27.5231C112.563 28.3145 111.179 28.71 109.674 28.71ZM112.091 16.6836C112.427 17.1406 112.653 17.792 112.768 18.6372H105.879C106.033 17.9155 106.289 17.322 106.649 16.8573C107.286 16.0372 108.275 15.6271 109.616 15.6271C110.764 15.6271 111.589 15.9793 112.091 16.6836Z" fill="white"/>
<path d="M125.978 28.2757V1.37915H129.914V28.2757H125.978Z" fill="white"/>
<path fill-rule="evenodd" clip-rule="evenodd" d="M134.296 28.0731C135.078 28.4976 136.029 28.71 137.147 28.71C138.498 28.71 139.613 28.4783 140.491 28.0152C141.191 27.6424 141.851 27.09 142.473 26.3572V28.2758H145.918V18.7241C145.918 18.0103 145.889 17.3638 145.831 16.7849C145.773 16.206 145.59 15.6271 145.281 15.0482C144.731 14.0062 143.921 13.273 142.85 12.8485C141.779 12.4239 140.553 12.2117 139.174 12.2117C137.292 12.2117 135.806 12.6169 134.716 13.4274C133.626 14.2378 132.883 15.2894 132.488 16.5823L136.048 17.711C136.299 16.9972 136.737 16.5003 137.365 16.2205C137.992 15.9407 138.595 15.8008 139.174 15.8008C140.216 15.8008 140.959 16.0179 141.402 16.452C141.751 16.793 141.963 17.2855 142.037 17.93C141.371 18.031 140.74 18.1269 140.143 18.2176C139.13 18.3624 138.223 18.5169 137.423 18.6807C136.622 18.8448 135.932 19.0331 135.353 19.2452C134.514 19.5538 133.843 19.94 133.341 20.4031C132.849 20.8565 132.492 21.382 132.27 21.9803C132.049 22.5786 131.938 23.2396 131.938 23.9631C131.938 24.8314 132.135 25.6272 132.531 26.351C132.936 27.0648 133.525 27.6389 134.296 28.0731ZM139.811 25.2365C139.319 25.4876 138.711 25.6131 137.987 25.6131C137.533 25.6131 137.143 25.5455 136.815 25.4103C136.487 25.2752 136.231 25.0824 136.048 24.8314C135.874 24.571 135.787 24.262 135.787 23.9052C135.787 23.6448 135.84 23.4083 135.946 23.1962C136.062 22.9838 136.236 22.791 136.467 22.6172C136.709 22.4338 137.022 22.2652 137.408 22.1107C137.746 21.9852 138.136 21.8693 138.58 21.7634C139.024 21.6572 139.608 21.5414 140.331 21.4158C140.796 21.3293 141.353 21.2303 142.001 21.1196C141.992 21.3948 141.976 21.7058 141.952 22.0527C141.923 22.6124 141.807 23.1045 141.605 23.5289C141.499 23.7507 141.296 24.0258 140.997 24.3538C140.708 24.6817 140.312 24.9762 139.811 25.2365Z" fill="white"/>
<path fill-rule="evenodd" clip-rule="evenodd" d="M11.561 12.7586H0.871338V17.4138C0.871338 24.3648 6.50637 30 13.4575 30C20.4088 30 26.0439 24.3648 26.0439 17.4138V12.7586H15.0093V5.34483C15.0093 2.39297 12.6163 0 9.66444 0C6.71258 0 4.31961 2.39297 4.31961 5.34483H7.76789C7.76789 4.29738 8.61703 3.44828 9.66444 3.44828C10.7119 3.44828 11.561 4.29738 11.561 5.34483V12.7586ZM11.561 16.2069V22.7586H15.0093V16.2069H22.5956V17.4138C22.5956 22.4607 18.5043 26.5517 13.4575 26.5517C8.41082 26.5517 4.31961 22.4607 4.31961 17.4138V16.2069H11.561Z" fill="white"/>
</svg>
